<svg xmlns="http://www.w3.org/2000/svg" width="30" height="30" viewBox="0 0 30 30">
  <defs>
    <style>
      .cls-1 {
        fill: #fff;
        fill-opacity: 0.9;
        fill-rule: evenodd;
      }
    </style>
  </defs>
  <path id="dribbble" class="cls-1" d="M152.687,608.02a14.925,14.925,0,0,1-.873,2.815,15.212,15.212,0,0,1-1.382,2.55,15.054,15.054,0,0,1-4.047,4.045A14.992,14.992,0,0,1,127.4,615.6a15.369,15.369,0,0,1-1.83-2.217,15.14,15.14,0,0,1-1.382-2.55,15.014,15.014,0,0,1,0-11.672,15.2,15.2,0,0,1,1.382-2.548,15.1,15.1,0,0,1,4.047-4.047,14.985,14.985,0,0,1,16.77,0,15.016,15.016,0,0,1,5.429,6.6A15.044,15.044,0,0,1,152.687,608.02Zm-7.582,7.321a12.5,12.5,0,0,0,5.19-7.813c0.039-.189.057-0.384,0.087-0.575-0.1-.03-0.245-0.069-0.4-0.109l-0.075-.019c-0.362-.09-0.84-0.2-1.415-0.29l-0.008,0a18.406,18.406,0,0,0-5.822-.05A56.675,56.675,0,0,1,145.1,615.341Zm-11.99,1.223a12.6,12.6,0,0,0,2.355.731,12.668,12.668,0,0,0,5.058,0,12.523,12.523,0,0,0,2.357-.731c0.023-.01.046-0.024,0.069-0.034a53.944,53.944,0,0,0-2.692-9.46c-0.027.01-.055,0.016-0.082,0.026a21.532,21.532,0,0,0-2.127.878c-0.094.044-.193,0.087-0.285,0.132-0.616.3-1.185,0.621-1.715,0.948-0.1.061-.2,0.123-0.294,0.185-0.511.328-.987,0.663-1.419,1-0.069.054-.131,0.107-0.2,0.16-0.437.352-.846,0.7-1.2,1.048h0c-0.365.351-.68,0.691-0.967,1.017-0.04.045-.084,0.092-0.123,0.137-0.261.3-.488,0.591-0.685,0.855l-0.108.147c-0.182.252-.341,0.486-0.466,0.683l-0.058.1c-0.117.189-.217,0.36-0.28,0.477h0c0.24,0.189.48,0.378,0.732,0.549A12.742,12.742,0,0,0,133.115,616.564ZM125.471,604.6c-0.005.134-.021,0.268-0.021,0.4a12.767,12.767,0,0,0,.255,2.528,12.351,12.351,0,0,0,.731,2.357,12.742,12.742,0,0,0,1.157,2.132,12.919,12.919,0,0,0,1.044,1.262h0c0.084-.136.212-0.329,0.362-0.547,0.027-.039.045-0.067,0.074-0.108,0.158-.226.35-0.487,0.571-0.773,0.043-.056.084-0.107,0.129-0.165,0.236-.3.5-0.617,0.8-0.955,0.045-.051.092-0.1,0.138-0.152,0.326-.361.677-0.734,1.073-1.115h0c0.388-.373.818-0.75,1.273-1.122,0.07-.057.134-0.113,0.2-0.17,0.447-.355.927-0.7,1.435-1.036,0.1-.063.192-0.125,0.291-0.187a17.9,17.9,0,0,1,1.659-.933c0.088-.043.18-0.082,0.269-0.124a16.585,16.585,0,0,1,1.974-.794c0.162-.052.329-0.093,0.494-0.139-0.325-.734-0.665-1.469-1.035-2.193a47.233,47.233,0,0,1-12.2,1.827h0C125.86,604.6,125.628,604.6,125.471,604.6Zm7.226-10.959a12.488,12.488,0,0,0-5.1,4.345,12.742,12.742,0,0,0-1.157,2.132,12.472,12.472,0,0,0-.7,2.246c0.134,0,.319,0,0.544-0.006h0.016c0.461-.01,1.1-0.033,1.876-0.084h0a49.451,49.451,0,0,0,7.935-1.18h0q0.582-.136,1.177-0.294A77.744,77.744,0,0,0,132.7,593.638Zm12.32,0.955a12.626,12.626,0,0,0-2.132-1.157,12.622,12.622,0,0,0-7.415-.731c-0.107.022-.21,0.056-0.316,0.081a65.974,65.974,0,0,1,4.6,7.222h0q0.752-.284,1.406-0.591l0.026-.012a13.973,13.973,0,0,0,5.085-3.775A12.788,12.788,0,0,0,145.017,594.593Zm5.278,7.877a12.521,12.521,0,0,0-.731-2.355,12.742,12.742,0,0,0-1.157-2.132c-0.209-.309-0.477-0.574-0.713-0.865a16.615,16.615,0,0,1-5.411,4.1l-0.1.05c-0.452.225-.925,0.441-1.437,0.651,0.3,0.617.593,1.243,0.862,1.875,0.1,0.225.176,0.442,0.267,0.665,0.456-.057.91-0.1,1.36-0.124l0.226-.012c0.384-.021.761-0.033,1.133-0.036l0.191,0c0.426,0,.842.007,1.243,0.024l0.088,0c0.363,0.017.71,0.039,1.045,0.065l0.238,0.019c0.326,0.028.639,0.059,0.929,0.092l0.059,0.006c0.311,0.037.593,0.074,0.853,0.112,0.068,0.009.124,0.018,0.188,0.028q0.293,0.043.529,0.084l0.129,0.021q0.28,0.049.456,0.084h0A12.835,12.835,0,0,0,150.295,602.47Z" transform="translate(-123 -590)"/>
</svg>
