<svg xmlns="http://www.w3.org/2000/svg" width="29.032" height="25.468" viewBox="0 0 29.032 25.468">
  <defs>
    <style>
      .cls-1 {
        fill: #fff;
        fill-opacity: 0.9;
        fill-rule: evenodd;
      }
    </style>
  </defs>
  <path id="google_" data-name="google+" class="cls-1" d="M151,444.985v6.007h-1.032v-6.007h-5.007v-1.032h4.976v-4.876H151v4.907l5.064-.031v1Zm-11.8-4.632c1.66,0.637,2.542,2.57,2.542,4.554a5.294,5.294,0,0,1-2.226,4.116c-1.272.993-1.513,1.41-1.513,2.255,0,0.722,1.361,1.948,2.075,2.452a5.5,5.5,0,0,1,2.756,5.124c0,2.848-2.756,5.679-7.748,5.679-4.377,0-8.071-1.78-8.071-4.629,0-2.89,3.313-5.734,7.691-5.734,0.477,0,.969.042,1.423,0.042a2.755,2.755,0,0,1-1-2.07,3.594,3.594,0,0,1,.328-1.58c-0.238.017-.482,0.022-0.733,0.022a5.7,5.7,0,0,1-6-5.728c0-3.1,3.325-5.779,6.859-5.779h7.885l-1.765,1.276h-2.5Zm-3.6,14.606c-3.025-.034-5.737,1.843-5.737,4.1,0,2.3,2.186,4.217,5.212,4.217,4.253,0,5.737-1.8,5.737-4.1a3.5,3.5,0,0,0-.1-0.812c-0.333-1.3-1.511-1.948-3.154-3.09A6.608,6.608,0,0,0,135.6,454.959Zm3.312-9.9c-0.35-2.668-2.281-4.808-4.312-4.868s-3.393,1.98-3.042,4.648,2.281,4.878,4.312,4.938S139.262,447.729,138.912,445.062Z" transform="translate(-127.031 -439.063)"/>
</svg>
