<svg xmlns="http://www.w3.org/2000/svg" width="22.875" height="30.844" viewBox="0 0 22.875 30.844">
  <defs>
    <style>
      .cls-1 {
        fill: #fff;
        fill-opacity: 0.9;
        fill-rule: evenodd;
      }
    </style>
  </defs>
  <path id="twitter" class="cls-1" d="M147.018,526.163a3.763,3.763,0,0,0,3.9-3.755,3.1,3.1,0,0,0-1.148-2.44,3.548,3.548,0,0,0-2.762-.834H135.052v-4.466a3.588,3.588,0,0,0-.932-2.746,3.484,3.484,0,0,0-2.628-1.146,3.313,3.313,0,0,0-2.555,1.123,3.585,3.585,0,0,0-.914,2.773v15.534a11.182,11.182,0,0,0,11.3,11.42h7.7a3.651,3.651,0,0,0,2.748-1.035,3.614,3.614,0,0,0,1.148-2.69,3.116,3.116,0,0,0-1.148-2.45,3.509,3.509,0,0,0-2.748-.853h-7.7a4.484,4.484,0,0,1-2.934-1.391,4.578,4.578,0,0,1-1.329-3v-4.039h11.966Z" transform="translate(-128.031 -510.781)"/>
</svg>
